<?xml version="1.0" standalone="yes"?>

<svg version="1.1" viewBox="0.0 0.0 960.0 720.0" fill="none" stroke="none" stroke-linecap="square" stroke-miterlimit="10" xmlns="http://www.w3.org/2000/svg" xmlns:xlink="http://www.w3.org/1999/xlink"><clipPath id="g1161bd087_08.0"><path d="m0 0l960.0 0l0 720.0l-960.0 0l0 -720.0z" clip-rule="nonzero"></path></clipPath><g clip-path="url(#g1161bd087_08.0)"><path fill="#ffffff" d="m0 0l960.0 0l0 720.0l-960.0 0z" fill-rule="nonzero"></path><path fill="#000000" fill-opacity="0.0" d="m424.01575 360.0l111.968506 0" fill-rule="nonzero"></path><path stroke="#666666" stroke-width="2.0" stroke-linejoin="round" stroke-linecap="butt" d="m424.01575 360.0l99.968506 0" fill-rule="evenodd"></path><path fill="#666666" stroke="#666666" stroke-width="2.0" stroke-linecap="butt" d="m523.98425 363.30347l9.076172 -3.3034668l-9.076172 -3.3034668z" fill-rule="evenodd"></path><path fill="#000000" fill-opacity="0.0" d="m439.16534 306.47244l81.66931 0l0 43.055115l-81.66931 0z" fill-rule="nonzero"></path><path fill="#000000" d="m450.30597 344.4412l0 -22.90625l4.390625 0l0 12.15625l5.140625 -5.84375l5.40625 0l-5.671875 6.0625l6.078125 10.53125l-4.734375 0l-4.171875 -7.453125l-2.046875 2.140625l0 5.3125l-4.390625 0zm33.046875 0l-4.390625 0l0 -8.46875q0 -2.6875 -0.28125 -3.46875q-0.28125 -0.796875 -0.921875 -1.234375q-0.625 -0.4375 -1.515625 -0.4375q-1.140625 0 -2.046875 0.625q-0.90625 0.625 -1.25 1.65625q-0.328125 1.03125 -0.328125 3.8125l0 7.515625l-4.390625 0l0 -16.59375l4.078125 0l0 2.4375q2.171875 -2.8125 5.46875 -2.8125q1.453125 0 2.65625 0.53125q1.203125 0.515625 1.8125 1.328125q0.625 0.8125 0.859375 1.84375q0.25 1.03125 0.25 2.953125l0 10.3125zm4.453125 -18.84375l0 -4.0625l4.390625 0l0 4.0625l-4.390625 0zm0 18.84375l0 -16.59375l4.390625 0l0 16.59375l-4.390625 0zm16.5 -16.59375l0 3.5l-3.0 0l0 6.6875q0 2.03125 0.078125 2.375q0.09375 0.328125 0.390625 0.546875q0.3125 0.21875 0.75 0.21875q0.609375 0 1.765625 -0.421875l0.375 3.40625q-1.53125 0.65625 -3.46875 0.65625q-1.1875 0 -2.140625 -0.390625q-0.953125 -0.40625 -1.40625 -1.03125q-0.4375 -0.640625 -0.609375 -1.71875q-0.140625 -0.765625 -0.140625 -3.09375l0 -7.234375l-2.015625 0l0 -3.5l2.015625 0l0 -3.296875l4.40625 -2.5625l0 5.859375l3.0 0z" fill-rule="nonzero"></path><path fill="#3a81ba" d="m137.59186 214.73753l193.03937 0l0 223.76314l-32.17386 32.17389l-160.86551 0z" fill-rule="nonzero"></path><path fill="#2e6794" d="m298.45737 470.67456l6.434784 -25.739105l25.739075 -6.434784z" fill-rule="nonzero"></path><path fill="#000000" fill-opacity="0.0" d="m298.45737 470.67456l6.434784 -25.739105l25.739075 -6.434784l-32.17386 32.17389l-160.86551 0l0 -255.93703l193.03937 0l0 223.76314" fill-rule="nonzero"></path><path stroke="#3a81ba" stroke-width="2.0" stroke-linejoin="round" stroke-linecap="butt" d="m298.45737 470.67456l6.434784 -25.739105l25.739075 -6.434784l-32.17386 32.17389l-160.86551 0l0 -255.93703l193.03937 0l0 223.76314" fill-rule="nonzero"></path><path fill="#000000" d="m184.6691 301.10345q0 -0.3125 0.15625 -0.640625q0.171875 -0.234375 0.40625 -0.46875q0.234375 -0.25 0.796875 -0.25l7.921875 0q7.59375 0 11.15625 3.71875q3.5625 3.71875 3.5625 12.125q0 6.46875 -1.921875 10.203125q-1.921875 3.71875 -5.03125 5.46875q0.953125 1.203125 2.109375 3.203125q1.171875 2.0 2.28125 4.796875q1.125 2.796875 1.96875 6.5625q0.84375 3.765625 1.15625 8.484375q0 0.875 -0.484375 1.234375q-0.46875 0.359375 -2.796875 0.359375q-0.796875 0 -1.765625 -0.046875q-0.953125 -0.03125 -2.078125 -0.109375q-0.3125 -5.046875 -1.125 -8.875q-0.796875 -3.84375 -1.75 -6.59375q-0.953125 -2.765625 -1.953125 -4.5625q-1.0 -1.8125 -1.734375 -2.765625q-0.390625 0.078125 -0.796875 0.078125q-0.390625 0 -0.796875 0l-2.796875 0l0 21.4375q0 0.484375 -0.125 0.765625q-0.109375 0.28125 -0.71875 0.40625q-0.59375 0.109375 -1.921875 0.109375q-1.3125 0 -3.71875 0l0 -54.640625zm16.796875 14.15625q0 -4.5625 -1.359375 -7.1875q-1.359375 -2.640625 -4.953125 -2.640625l-4.0 0l0 21.59375l3.515625 0q3.359375 0 5.078125 -2.671875q1.71875 -2.6875 1.71875 -9.09375zm29.121216 9.359375q-0.078125 -2.15625 -0.796875 -3.078125q-0.71875 -0.921875 -3.125 -0.921875q-2.796875 0 -5.4375 1.359375l0 32.484375q0 0.484375 -0.125 0.765625q-0.109375 0.28125 -0.75 0.40625q-0.640625 0.109375 -1.96875 0.109375q-1.3125 0 -3.625 0l0 -38.15625q2.625 -1.203125 5.671875 -1.921875q3.046875 -0.71875 6.40625 -0.71875q2.546875 0 4.3125 0.640625q1.765625 0.640625 2.875 1.84375q2.09375 -1.125 4.71875 -1.796875q2.640625 -0.6875 5.125 -0.6875q2.96875 0 4.765625 0.765625q1.796875 0.75 2.71875 2.1875q0.921875 1.4375 1.203125 3.53125q0.28125 2.078125 0.28125 4.796875l0 28.234375q0 0.484375 -0.125 0.765625q-0.125 0.28125 -0.765625 0.40625q-0.640625 0.109375 -1.96875 0.109375q-1.3125 0 -3.625 0l0 -29.59375q0 -2.890625 -0.765625 -4.171875q-0.75 -1.28125 -3.15625 -1.28125q-1.359375 0 -2.6875 0.328125q-1.3125 0.3125 -2.671875 1.203125l0 32.234375q0 0.484375 -0.078125 0.765625q-0.078125 0.28125 -0.6875 0.40625q-0.59375 0.109375 -1.921875 0.109375q-1.3125 0 -3.796875 0l0 -31.125zm46.086853 -2.953125q-0.796875 -0.640625 -1.609375 -0.84375q-0.796875 -0.203125 -2.078125 -0.203125q-1.359375 0 -2.59375 0.640625q-1.234375 0.640625 -2.234375 2.359375q-1.0 1.71875 -1.609375 4.84375q-0.59375 3.125 -0.59375 8.0q0 4.484375 0.390625 7.28125q0.40625 2.796875 1.203125 4.359375q0.796875 1.5625 1.875 2.078125q1.09375 0.515625 2.53125 0.515625q1.359375 0 2.546875 -0.265625q1.203125 -0.28125 2.171875 -0.921875l0 -27.84375zm0 -21.765625q0 -1.109375 0.28125 -1.703125q0.28125 -0.609375 1.0 -0.890625q0.71875 -0.28125 1.953125 -0.3125q1.25 -0.046875 3.25 -0.046875l0 57.203125q-2.0 0.953125 -4.84375 1.671875q-2.84375 0.71875 -6.609375 0.71875q-2.640625 0 -5.0 -0.609375q-2.359375 -0.59375 -4.15625 -2.59375q-1.796875 -2.0 -2.84375 -5.828125q-1.03125 -3.84375 -1.03125 -10.328125q0 -5.921875 0.953125 -10.15625q0.96875 -4.234375 2.640625 -6.90625q1.6875 -2.6875 3.921875 -3.921875q2.234375 -1.25 4.796875 -1.25q3.609375 0 5.6875 1.59375l0 -16.640625z" fill-rule="nonzero"></path><path fill="#d89f39" d="m629.3688 214.73753l193.03937 0l0 223.76314l-32.17389 32.17389l-160.86548 0z" fill-rule="nonzero"></path><path fill="#ac7f2d" d="m790.23425 470.67456l6.4348145 -25.739105l25.739075 -6.434784z" fill-rule="nonzero"></path><path fill="#000000" fill-opacity="0.0" d="m790.23425 470.67456l6.4348145 -25.739105l25.739075 -6.434784l-32.17389 32.17389l-160.86548 0l0 -255.93703l193.03937 0l0 223.76314" fill-rule="nonzero"></path><path stroke="#666666" stroke-width="2.0" stroke-linejoin="round" stroke-linecap="butt" d="m790.23425 470.67456l6.4348145 -25.739105l25.739075 -6.434784l-32.17389 32.17389l-160.86548 0l0 -255.93703l193.03937 0l0 223.76314" fill-rule="nonzero"></path><path fill="#000000" d="m700.6385 306.1972q0 -0.765625 0.3125 -0.921875q0.328125 -0.15625 0.78125 -0.15625l3.765625 0l6.09375 19.328125q0.25 0.953125 0.59375 2.109375q0.359375 1.15625 0.640625 2.25q0.296875 1.078125 0.515625 1.84375q0.234375 0.765625 0.296875 0.96875q0 -0.078125 0.1875 -0.875q0.1875 -0.796875 0.46875 -1.84375q0.296875 -1.0625 0.578125 -2.21875q0.296875 -1.15625 0.609375 -2.046875l5.640625 -18.4375q0.125 -0.5 0.3125 -0.78125q0.203125 -0.296875 0.703125 -0.296875l4.234375 0l0 43.765625q0 0.390625 -0.109375 0.625q-0.09375 0.21875 -0.578125 0.3125q-0.46875 0.09375 -1.5625 0.09375q-1.078125 0 -3.0625 0l0.1875 -15.546875q0.0625 -2.3125 0.21875 -5.25q0.171875 -2.953125 0.359375 -5.734375q0.1875 -2.78125 0.34375 -4.953125q0.171875 -2.171875 0.234375 -2.953125q-0.515625 1.796875 -1.15625 4.078125q-0.640625 2.265625 -1.21875 4.34375q-0.578125 2.078125 -1.0625 3.71875q-0.46875 1.625 -0.65625 2.203125l-3.390625 9.71875q-0.140625 0.328125 -0.328125 0.421875q-0.1875 0.09375 -0.390625 0.09375l-2.234375 0l-3.328125 -10.234375q-0.1875 -0.515625 -0.671875 -2.140625q-0.484375 -1.640625 -1.09375 -3.75q-0.59375 -2.109375 -1.234375 -4.40625q-0.640625 -2.3125 -1.15625 -4.171875l0 0.0625q0.3125 3.390625 0.578125 6.78125q0.25 2.890625 0.40625 6.125q0.171875 3.21875 0.234375 5.78125l0.125 14.78125q0 0.390625 -0.125 0.625q-0.125 0.21875 -0.640625 0.3125q-0.515625 0.09375 -1.578125 0.09375q-1.046875 0 -2.84375 0l0 -43.71875zm44.999084 16.453125q-0.640625 -0.515625 -1.28125 -0.671875q-0.640625 -0.15625 -1.671875 -0.15625q-1.078125 0 -2.078125 0.515625q-0.984375 0.5 -1.796875 1.890625q-0.796875 1.375 -1.28125 3.875q-0.46875 2.484375 -0.46875 6.390625q0 3.578125 0.3125 5.828125q0.328125 2.234375 0.96875 3.484375q0.640625 1.25 1.5 1.671875q0.859375 0.40625 2.015625 0.40625q1.09375 0 2.046875 -0.21875q0.96875 -0.234375 1.734375 -0.734375l0 -22.28125zm0 -17.40625q0 -0.890625 0.21875 -1.375q0.21875 -0.484375 0.796875 -0.703125q0.578125 -0.21875 1.5625 -0.25q1.0 -0.046875 2.59375 -0.046875l0 45.765625q-1.59375 0.765625 -3.875 1.34375q-2.265625 0.578125 -5.265625 0.578125q-2.109375 0 -4.0 -0.484375q-1.890625 -0.46875 -3.328125 -2.0625q-1.4375 -1.609375 -2.28125 -4.671875q-0.828125 -3.078125 -0.828125 -8.265625q0 -4.734375 0.765625 -8.125q0.765625 -3.40625 2.109375 -5.546875q1.34375 -2.140625 3.140625 -3.125q1.796875 -1.0 3.84375 -1.0q2.875 0 4.546875 1.28125l0 -13.3125z" fill-rule="nonzero"></path></g></svg>

