<?xml version="1.0" standalone="yes"?>

<svg version="1.1" viewBox="0.0 0.0 960.0 720.0" fill="none" stroke="none" stroke-linecap="square" stroke-miterlimit="10" xmlns="http://www.w3.org/2000/svg" xmlns:xlink="http://www.w3.org/1999/xlink"><clipPath id="g1161bd087_021.0"><path d="m0 0l960.0 0l0 720.0l-960.0 0l0 -720.0z" clip-rule="nonzero"></path></clipPath><g clip-path="url(#g1161bd087_021.0)"><path fill="#ffffff" d="m0 0l960.0 0l0 720.0l-960.0 0z" fill-rule="nonzero"></path><path fill="#d89f39" d="m55.04987 261.18655l135.71654 0l0 234.388l-22.619873 22.619843l-113.096664 0z" fill-rule="nonzero"></path><path fill="#ac7f2d" d="m168.14653 518.1944l4.5239716 -18.095886l18.095901 -4.5239563z" fill-rule="nonzero"></path><path fill="#000000" fill-opacity="0.0" d="m168.14653 518.1944l4.5239716 -18.095886l18.095901 -4.5239563l-22.619873 22.619843l-113.096664 0l0 -257.00784l135.71654 0l0 234.388" fill-rule="nonzero"></path><path stroke="#666666" stroke-width="2.0" stroke-linejoin="round" stroke-linecap="butt" d="m168.14653 518.1944l4.5239716 -18.095886l18.095901 -4.5239563l-22.619873 22.619843l-113.096664 0l0 -257.00784l135.71654 0l0 234.388" fill-rule="nonzero"></path><path fill="#000000" d="m91.345665 352.86493q0 -0.953125 0.390625 -1.15625q0.40625 -0.203125 0.96875 -0.203125l4.71875 0l7.609375 24.15625q0.3125 1.203125 0.75 2.640625q0.4375 1.4375 0.796875 2.796875q0.375 1.359375 0.640625 2.328125q0.28125 0.953125 0.375 1.203125q0 -0.078125 0.234375 -1.078125q0.234375 -1.0 0.59375 -2.3125q0.359375 -1.328125 0.71875 -2.765625q0.359375 -1.453125 0.765625 -2.5625l7.046875 -23.046875q0.15625 -0.640625 0.390625 -1.0q0.25 -0.359375 0.875 -0.359375l5.28125 0l0 54.71875q0 0.484375 -0.125 0.765625q-0.109375 0.28125 -0.71875 0.40625q-0.59375 0.109375 -1.953125 0.109375q-1.359375 0 -3.84375 0l0.25 -19.4375q0.078125 -2.875 0.28125 -6.5625q0.203125 -3.6875 0.4375 -7.15625q0.234375 -3.484375 0.4375 -6.203125q0.203125 -2.71875 0.28125 -3.6875q-0.640625 2.25 -1.4375 5.09375q-0.796875 2.828125 -1.53125 5.4375q-0.71875 2.59375 -1.3125 4.640625q-0.59375 2.03125 -0.84375 2.75l-4.234375 12.171875q-0.15625 0.390625 -0.40625 0.515625q-0.234375 0.125 -0.46875 0.125l-2.8125 0l-4.15625 -12.8125q-0.234375 -0.640625 -0.84375 -2.671875q-0.59375 -2.046875 -1.359375 -4.6875q-0.75 -2.640625 -1.5625 -5.515625q-0.796875 -2.875 -1.4375 -5.203125l0 0.078125q0.40625 4.25 0.71875 8.484375q0.328125 3.59375 0.53125 7.640625q0.203125 4.046875 0.28125 7.234375l0.15625 18.484375q0 0.484375 -0.171875 0.765625q-0.15625 0.28125 -0.796875 0.40625q-0.640625 0.109375 -1.953125 0.109375q-1.3125 0 -3.5625 0l0 -54.640625zm56.244972 20.5625q-0.796875 -0.640625 -1.609375 -0.84375q-0.796875 -0.203125 -2.078125 -0.203125q-1.359375 0 -2.59375 0.640625q-1.234375 0.640625 -2.234375 2.359375q-1.0 1.71875 -1.609375 4.84375q-0.59375 3.125 -0.59375 8.0q0 4.484375 0.390625 7.28125q0.40625 2.796875 1.203125 4.359375q0.796875 1.5625 1.875 2.078125q1.09375 0.515625 2.53125 0.515625q1.359375 0 2.546875 -0.265625q1.203125 -0.28125 2.171875 -0.921875l0 -27.84375zm0 -21.765625q0 -1.109375 0.28125 -1.703125q0.28125 -0.609375 1.0 -0.890625q0.71875 -0.28125 1.953125 -0.3125q1.25 -0.046875 3.25 -0.046875l0 57.203125q-2.0 0.953125 -4.84375 1.671875q-2.84375 0.71875 -6.609375 0.71875q-2.640625 0 -5.0 -0.609375q-2.359375 -0.59375 -4.15625 -2.59375q-1.796875 -2.0 -2.84375 -5.828125q-1.03125 -3.84375 -1.03125 -10.328125q0 -5.921875 0.953125 -10.15625q0.96875 -4.234375 2.640625 -6.90625q1.6875 -2.6875 3.921875 -3.921875q2.234375 -1.25 4.796875 -1.25q3.609375 0 5.6875 1.59375l0 -16.640625z" fill-rule="nonzero"></path><path fill="#000000" fill-opacity="0.0" d="m197.96501 295.82608l67.81102 -55.2126" fill-rule="nonzero"></path><path stroke="#666666" stroke-width="2.0" stroke-linejoin="round" stroke-linecap="butt" d="m197.96501 295.82608l58.505447 -47.635895" fill-rule="evenodd"></path><path fill="#666666" stroke="#666666" stroke-width="2.0" stroke-linecap="butt" d="m258.55627 250.7519l4.9524536 -8.292358l-9.124039 3.1689148z" fill-rule="evenodd"></path><path fill="#000000" fill-opacity="0.0" d="m205.41646 343.52948l60.34645 -29.669281" fill-rule="nonzero"></path><path stroke="#666666" stroke-width="2.0" stroke-linejoin="round" stroke-linecap="butt" d="m205.41646 343.52948l49.57759 -24.374786" fill-rule="evenodd"></path><path fill="#666666" stroke="#666666" stroke-width="2.0" stroke-linecap="butt" d="m256.45157 322.11923l6.6875 -6.9690247l-9.602524 1.0399475z" fill-rule="evenodd"></path><path fill="#000000" fill-opacity="0.0" d="m206.90727 383.77884l62.07875 0" fill-rule="nonzero"></path><path stroke="#666666" stroke-width="2.0" stroke-linejoin="round" stroke-linecap="butt" d="m206.90727 383.77884l50.07875 0" fill-rule="evenodd"></path><path fill="#666666" stroke="#666666" stroke-width="2.0" stroke-linecap="butt" d="m256.98602 387.0823l9.076202 -3.3034668l-9.076202 -3.3034668z" fill-rule="evenodd"></path><path fill="#000000" fill-opacity="0.0" d="m206.90727 419.5531l55.023636 31.748047" fill-rule="nonzero"></path><path stroke="#666666" stroke-width="2.0" stroke-linejoin="round" stroke-linecap="butt" d="m206.90727 419.5531l44.6297 25.750854" fill-rule="evenodd"></path><path fill="#666666" stroke="#666666" stroke-width="2.0" stroke-linecap="butt" d="m249.88602 448.16528l9.51239 1.6746521l-6.2104797 -7.3973083z" fill-rule="evenodd"></path><path fill="#000000" fill-opacity="0.0" d="m206.15137 456.81296l55.77954 55.77951" fill-rule="nonzero"></path><path stroke="#666666" stroke-width="2.0" stroke-linejoin="round" stroke-linecap="butt" d="m206.15137 456.81296l47.29425 47.29425" fill-rule="evenodd"></path><path fill="#666666" stroke="#666666" stroke-width="2.0" stroke-linecap="butt" d="m251.10971 506.4431l8.753754 4.081909l-4.0819397 -8.753723z" fill-rule="evenodd"></path><path fill="#8bab42" d="m288.40073 161.66599l108.816376 0l0 62.16371c-54.408203 0 -54.408203 23.685516 -108.816376 10.227829z" fill-rule="nonzero"></path><path stroke="#666666" stroke-width="2.0" stroke-linejoin="round" stroke-linecap="butt" d="m288.40073 161.66599l108.816376 0l0 62.16371c-54.408203 0 -54.408203 23.685516 -108.816376 10.227829z" fill-rule="nonzero"></path><path fill="#8bab42" d="m288.40073 250.7552l108.816376 0l0 62.16371c-54.408203 0 -54.408203 23.685516 -108.816376 10.227844z" fill-rule="nonzero"></path><path stroke="#666666" stroke-width="2.0" stroke-linejoin="round" stroke-linecap="butt" d="m288.40073 250.7552l108.816376 0l0 62.16371c-54.408203 0 -54.408203 23.685516 -108.816376 10.227844z" fill-rule="nonzero"></path><path fill="#8bab42" d="m288.40073 347.84445l108.816376 0l0 62.163696c-54.408203 0 -54.408203 23.685516 -108.816376 10.227844z" fill-rule="nonzero"></path><path stroke="#666666" stroke-width="2.0" stroke-linejoin="round" stroke-linecap="butt" d="m288.40073 347.84445l108.816376 0l0 62.163696c-54.408203 0 -54.408203 23.685516 -108.816376 10.227844z" fill-rule="nonzero"></path><path fill="#8bab42" d="m288.40073 452.9337l108.816376 0l0 62.163727c-54.408203 0 -54.408203 23.685486 -108.816376 10.227783z" fill-rule="nonzero"></path><path stroke="#666666" stroke-width="2.0" stroke-linejoin="round" stroke-linecap="butt" d="m288.40073 452.9337l108.816376 0l0 62.163727c-54.408203 0 -54.408203 23.685486 -108.816376 10.227783z" fill-rule="nonzero"></path><path fill="#8bab42" d="m288.40073 550.02295l108.816376 0l0 62.163696c-54.408203 0 -54.408203 23.685486 -108.816376 10.227844z" fill-rule="nonzero"></path><path stroke="#666666" stroke-width="2.0" stroke-linejoin="round" stroke-linecap="butt" d="m288.40073 550.02295l108.816376 0l0 62.163696c-54.408203 0 -54.408203 23.685486 -108.816376 10.227844z" fill-rule="nonzero"></path><path fill="#000000" fill-opacity="0.0" d="m149.08923 52.288715l148.53543 0l0 103.49606l-148.53543 0z" fill-rule="nonzero"></path><path fill="#666666" d="m173.60486 97.05434q3.125 0 5.078125 0.484375q1.96875 0.46875 3.078125 1.15625q1.125 0.671875 1.515625 1.484375q0.40625 0.796875 0.40625 1.359375q0 1.671875 -1.4375 3.265625q-3.4375 -2.078125 -7.84375 -2.078125q-2.796875 0 -4.5625 1.0q-1.75 1.0 -1.75 2.84375q0 1.125 0.5625 2.203125q0.5625 1.078125 2.640625 2.765625l7.4375 6.0q2.5625 2.546875 3.640625 4.75q1.078125 2.203125 1.078125 5.25q0 5.359375 -3.53125 8.234375q-3.515625 2.875 -9.671875 2.875q-4.3125 0 -7.03125 -1.0q-2.71875 -1.0 -2.71875 -3.078125q0 -0.71875 0.234375 -1.671875q0.234375 -0.96875 0.875 -2.09375q3.4375 2.0 8.0 2.0q3.046875 0 4.765625 -1.265625q1.71875 -1.28125 1.71875 -3.6875q0 -1.59375 -0.6875 -3.109375q-0.671875 -1.53125 -2.515625 -3.125l-7.75 -6.640625q-2.734375 -2.25 -3.65625 -4.359375q-0.90625 -2.125 -0.90625 -4.125q0 -4.15625 3.15625 -6.796875q3.15625 -2.640625 9.875 -2.640625zm15.771851 3.203125q5.03125 -3.203125 11.671875 -3.203125q2.953125 0 5.359375 0.765625q2.40625 0.75 4.125 2.640625q1.71875 1.875 2.640625 5.109375q0.921875 3.234375 0.921875 8.125q0 8.078125 -1.09375 13.0q-1.078125 4.921875 -2.84375 7.5625q-1.75 2.640625 -3.875 3.515625q-2.109375 0.875 -4.109375 0.875q-2.25 0 -3.84375 -0.6875q-1.59375 -0.671875 -2.484375 -1.546875l0 16.640625q-0.796875 0.3125 -1.6875 0.4375q-0.875 0.125 -1.671875 0.125q-1.671875 0 -2.390625 -0.609375q-0.71875 -0.59375 -0.71875 -2.203125l0 -50.546875zm6.46875 29.90625q0.890625 1.375 2.0 2.015625q1.125 0.625 2.328125 0.625q0.953125 0 2.109375 -0.515625q1.171875 -0.515625 2.171875 -2.4375q1.0 -1.921875 1.71875 -5.5625q0.71875 -3.640625 0.71875 -9.875q0 -3.609375 -0.40625 -5.84375q-0.390625 -2.234375 -1.15625 -3.546875q-0.765625 -1.328125 -1.921875 -1.8125q-1.15625 -0.484375 -2.671875 -0.484375q-2.734375 0 -4.890625 1.53125l0 25.90625zm30.639969 6.40625q0 0.484375 -0.125 0.765625q-0.109375 0.28125 -0.71875 0.40625q-0.59375 0.109375 -1.921875 0.109375q-1.3125 0 -3.703125 0l0 -55.84375q0 -1.109375 0.265625 -1.703125q0.28125 -0.609375 1.0 -0.890625q0.734375 -0.28125 2.0 -0.3125q1.28125 -0.046875 3.203125 -0.046875l0 57.515625zm13.996231 0q0 0.484375 -0.125 0.765625q-0.109375 0.28125 -0.75 0.40625q-0.640625 0.109375 -1.96875 0.109375q-1.3125 0 -3.78125 0l0 -37.046875q0 -1.109375 0.265625 -1.703125q0.28125 -0.609375 1.046875 -0.890625q0.765625 -0.28125 2.03125 -0.3125q1.28125 -0.046875 3.28125 -0.046875l0 38.71875zm-6.3125 -51.4375q0.078125 -2.15625 0.953125 -3.46875q0.890625 -1.328125 2.8125 -1.328125q1.828125 0 2.546875 1.046875q0.734375 1.03125 0.640625 3.59375q0 2.46875 -0.921875 3.828125q-0.90625 1.359375 -2.75 1.359375q-1.59375 0 -2.4375 -1.109375q-0.84375 -1.125 -0.84375 -3.921875zm16.874985 18.3125l-5.4375 0q0 -1.828125 0.03125 -2.953125q0.046875 -1.125 0.171875 -1.71875q0.125 -0.609375 0.4375 -0.765625q0.328125 -0.15625 0.796875 -0.15625l4.0 0l0 -12.15625q0 -0.796875 0.28125 -1.28125q0.28125 -0.484375 1.0 -0.671875q0.71875 -0.203125 2.0 -0.25q1.28125 -0.046875 3.2812653 -0.046875l0 14.40625l8.15625 0q0 1.921875 -0.046875 3.0q-0.03125 1.078125 -0.15625 1.6875q-0.109375 0.59375 -0.359375 0.75q-0.234375 0.15625 -0.71875 0.15625l-6.875 0l0 23.28125q0 1.28125 0.03125 2.453125q0.046875 1.15625 0.328125 2.0q0.28125 0.828125 0.84375 1.359375q0.5625 0.515625 1.671875 0.515625q1.375 0 2.40625 -0.28125q1.046875 -0.28125 2.234375 -0.921875q0.171875 0.640625 0.328125 1.4375q0.15625 0.796875 0.15625 1.765625q0 1.109375 -0.640625 1.796875q-0.640625 0.6875 -1.640625 1.078125q-1.0 0.40625 -2.203125 0.5625q-1.1875 0.15625 -2.390625 0.15625q-2.5625 0 -4.0937653 -0.828125q-1.515625 -0.84375 -2.3125 -2.40625q-0.796875 -1.5625 -1.046875 -3.765625q-0.234375 -2.203125 -0.234375 -4.921875l0 -23.28125z" fill-rule="nonzero"></path><path fill="#963334" d="m515.3694 162.55534l119.2323 0l0 72.521164l-119.2323 0z" fill-rule="nonzero"></path><path stroke="#666666" stroke-width="2.0" stroke-linejoin="round" stroke-linecap="butt" d="m515.3694 162.55534l119.2323 0l0 72.521164l-119.2323 0z" fill-rule="nonzero"></path><path fill="#963334" d="m515.3694 250.3153l119.2323 0l0 72.52115l-119.2323 0z" fill-rule="nonzero"></path><path stroke="#666666" stroke-width="2.0" stroke-linejoin="round" stroke-linecap="butt" d="m515.3694 250.3153l119.2323 0l0 72.52115l-119.2323 0z" fill-rule="nonzero"></path><path fill="#963334" d="m515.3694 346.07526l119.2323 0l0 72.52115l-119.2323 0z" fill-rule="nonzero"></path><path stroke="#666666" stroke-width="2.0" stroke-linejoin="round" stroke-linecap="butt" d="m515.3694 346.07526l119.2323 0l0 72.52115l-119.2323 0z" fill-rule="nonzero"></path><path fill="#963334" d="m515.3694 446.1007l119.2323 0l0 72.52118l-119.2323 0z" fill-rule="nonzero"></path><path stroke="#666666" stroke-width="2.0" stroke-linejoin="round" stroke-linecap="butt" d="m515.3694 446.1007l119.2323 0l0 72.52118l-119.2323 0z" fill-rule="nonzero"></path><path fill="#963334" d="m515.3694 546.12616l119.2323 0l0 72.52118l-119.2323 0z" fill-rule="nonzero"></path><path stroke="#666666" stroke-width="2.0" stroke-linejoin="round" stroke-linecap="butt" d="m515.3694 546.12616l119.2323 0l0 72.52118l-119.2323 0z" fill-rule="nonzero"></path><path fill="#000000" fill-opacity="0.0" d="m416.69012 200.09076l76.346466 0" fill-rule="nonzero"></path><path stroke="#666666" stroke-width="2.0" stroke-linejoin="round" stroke-linecap="butt" d="m416.69012 200.09076l64.346466 0" fill-rule="evenodd"></path><path fill="#666666" stroke="#666666" stroke-width="2.0" stroke-linecap="butt" d="m481.0366 203.39423l9.076172 -3.3034668l-9.076172 -3.3034668z" fill-rule="evenodd"></path><path fill="#000000" fill-opacity="0.0" d="m412.88434 286.57632l76.346466 0" fill-rule="nonzero"></path><path stroke="#666666" stroke-width="2.0" stroke-linejoin="round" stroke-linecap="butt" d="m412.88434 286.57632l64.346466 0" fill-rule="evenodd"></path><path fill="#666666" stroke="#666666" stroke-width="2.0" stroke-linecap="butt" d="m477.2308 289.8798l9.076202 -3.3034668l-9.076202 -3.3034668z" fill-rule="evenodd"></path><path fill="#000000" fill-opacity="0.0" d="m412.88434 383.7784l76.346466 0" fill-rule="nonzero"></path><path stroke="#666666" stroke-width="2.0" stroke-linejoin="round" stroke-linecap="butt" d="m412.88434 383.7784l64.346466 0" fill-rule="evenodd"></path><path fill="#666666" stroke="#666666" stroke-width="2.0" stroke-linecap="butt" d="m477.2308 387.08188l9.076202 -3.3034668l-9.076202 -3.3034668z" fill-rule="evenodd"></path><path fill="#000000" fill-opacity="0.0" d="m412.88434 484.7023l76.346466 0" fill-rule="nonzero"></path><path stroke="#666666" stroke-width="2.0" stroke-linejoin="round" stroke-linecap="butt" d="m412.88434 484.7023l64.346466 0" fill-rule="evenodd"></path><path fill="#666666" stroke="#666666" stroke-width="2.0" stroke-linecap="butt" d="m477.2308 488.00577l9.076202 -3.3034668l-9.076202 -3.3034668z" fill-rule="evenodd"></path><path fill="#000000" fill-opacity="0.0" d="m418.4119 588.78107l76.346466 0" fill-rule="nonzero"></path><path stroke="#666666" stroke-width="2.0" stroke-linejoin="round" stroke-linecap="butt" d="m418.4119 588.78107l64.346466 0" fill-rule="evenodd"></path><path fill="#666666" stroke="#666666" stroke-width="2.0" stroke-linecap="butt" d="m482.75836 592.08453l9.076202 -3.3034668l-9.076202 -3.3034668z" fill-rule="evenodd"></path><path fill="#000000" fill-opacity="0.0" d="m375.4357 46.619423l159.3071 0l0 103.496056l-159.3071 0z" fill-rule="nonzero"></path><path fill="#666666" d="m386.84195 95.77567q0 -0.640625 0.1875 -1.234375q0.203125 -0.59375 0.6875 -1.0q1.03125 -0.640625 4.3125 -1.390625q3.28125 -0.765625 7.84375 -0.765625q5.203125 0 7.5625 2.15625q2.359375 2.15625 2.359375 7.59375l0 4.25q0 3.4375 0 6.921875q0 3.46875 -0.078125 6.71875q-0.078125 3.234375 -0.15625 6.125q-0.078125 2.8749924 -0.25 5.1093674q-1.59375 0.96875 -4.390625 1.84375q-2.796875 0.875 -6.71875 0.875q-2.171875 0 -4.25 -0.328125q-2.078125 -0.3125 -3.6875 -1.59375q-1.59375 -1.28125 -2.5625 -3.7187424q-0.953125 -2.4375 -0.953125 -6.515625q0 -4.15625 0.921875 -6.71875q0.921875 -2.5625 2.40625 -4.0q1.484375 -1.4375 3.390625 -1.921875q1.921875 -0.484375 3.921875 -0.484375q1.359375 0 3.0 0.203125q1.640625 0.203125 2.84375 0.84375l0 -6.328125q0 -2.796875 -1.28125 -3.75q-1.28125 -0.96875 -3.671875 -0.96875q-3.046875 0 -5.921875 0.53125q-2.875 0.515625 -4.640625 1.234375q-0.5625 -0.96875 -0.71875 -1.96875q-0.15625 -1.0 -0.15625 -1.71875zm16.390625 17.53125q-0.796875 -0.40625 -1.84375 -0.5625q-1.03125 -0.15625 -1.90625 -0.15625q-1.203125 0 -2.28125 0.28125q-1.078125 0.265625 -1.890625 1.15625q-0.796875 0.875 -1.28125 2.4375q-0.46875 1.5625 -0.46875 4.203125q0 2.15625 0.359375 3.515625q0.359375 1.359375 1.03125 2.125q0.6875 0.75 1.640625 1.0q0.96875 0.234375 2.15625 0.234375q1.375 0 2.53125 -0.390625q1.15625 -0.40625 1.71875 -0.96875q0.078125 -0.953125 0.109375 -2.515625q0.046875 -1.5625 0.078125 -3.3125q0.046875 -1.765625 0.046875 -3.609375q0 -1.84375 0 -3.4375zm13.210602 -18.71875q5.03125 -3.203125 11.671875 -3.203125q2.953125 0 5.359375 0.765625q2.40625 0.75 4.125 2.640625q1.71875 1.875 2.640625 5.109375q0.921875 3.234375 0.921875 8.125q0 8.078125 -1.09375 13.0q-1.078125 4.921875 -2.84375 7.5624924q-1.75 2.640625 -3.875 3.515625q-2.109375 0.875 -4.109375 0.875q-2.25 0 -3.84375 -0.6875q-1.59375 -0.671875 -2.484375 -1.546875l0 16.640625q-0.796875 0.3125 -1.6875 0.4375q-0.875 0.125 -1.671875 0.125q-1.671875 0 -2.390625 -0.609375q-0.71875 -0.59375 -0.71875 -2.203125l0 -50.546867zm6.46875 29.90625q0.890625 1.375 2.0 2.015625q1.125 0.625 2.328125 0.625q0.953125 0 2.109375 -0.515625q1.171875 -0.515625 2.171875 -2.4375q1.0 -1.921875 1.71875 -5.5625q0.71875 -3.640625 0.71875 -9.875q0 -3.609375 -0.40625 -5.84375q-0.390625 -2.234375 -1.15625 -3.546875q-0.765625 -1.328125 -1.921875 -1.8125q-1.15625 -0.484375 -2.671875 -0.484375q-2.734375 0 -4.890625 1.53125l0 25.90625zm24.171204 -29.90625q5.03125 -3.203125 11.671875 -3.203125q2.953125 0 5.359375 0.765625q2.40625 0.75 4.125 2.640625q1.71875 1.875 2.640625 5.109375q0.921875 3.234375 0.921875 8.125q0 8.078125 -1.09375 13.0q-1.078125 4.921875 -2.84375 7.5624924q-1.75 2.640625 -3.875 3.515625q-2.109375 0.875 -4.109375 0.875q-2.25 0 -3.84375 -0.6875q-1.59375 -0.671875 -2.484375 -1.546875l0 16.640625q-0.796875 0.3125 -1.6875 0.4375q-0.875 0.125 -1.671875 0.125q-1.671875 0 -2.390625 -0.609375q-0.71875 -0.59375 -0.71875 -2.203125l0 -50.546867zm6.46875 29.90625q0.890625 1.375 2.0 2.015625q1.125 0.625 2.328125 0.625q0.953125 0 2.109375 -0.515625q1.171875 -0.515625 2.171875 -2.4375q1.0 -1.921875 1.71875 -5.5625q0.71875 -3.640625 0.71875 -9.875q0 -3.609375 -0.40625 -5.84375q-0.390625 -2.234375 -1.15625 -3.546875q-0.765625 -1.328125 -1.921875 -1.8125q-1.15625 -0.484375 -2.671875 -0.484375q-2.734375 0 -4.890625 1.53125l0 25.90625zm30.639984 6.4062424q0 0.484375 -0.125 0.765625q-0.109375 0.28125 -0.71875 0.40625q-0.59375 0.109375 -1.921875 0.109375q-1.3125 0 -3.703125 0l0 -55.843742q0 -1.109375 0.265625 -1.703125q0.28125 -0.609375 1.0 -0.890625q0.734375 -0.28125 2.0 -0.3125q1.28125 -0.046875 3.203125 -0.046875l0 57.515617zm5.605591 -36.953117q-0.15625 -0.640625 -0.15625 -1.0q0 -0.359375 0.59375 -0.515625q0.59375 -0.171875 1.953125 -0.203125q1.375 -0.046875 3.921875 -0.046875l4.328125 19.046875q0.484375 2.234375 0.84375 4.5625q0.359375 2.3125 0.625 4.3125q0.28125 2.0 0.4375 3.4375q0.171875 1.4375 0.25 1.84375q0 -0.25 0.15625 -1.640625q0.171875 -1.40625 0.40625 -3.40625q0.234375 -2.0 0.59375 -4.4375q0.359375 -2.4375 0.765625 -4.765625l3.515625 -17.03125q0.078125 -0.71875 0.28125 -1.109375q0.203125 -0.40625 0.875 -0.5625q0.6875 -0.171875 2.046875 -0.203125q1.3594055 -0.046875 3.8437805 -0.046875l-9.8437805 42.156242q-0.875 3.84375 -1.921875 6.359375q-1.03125 2.53125 -2.359375 4.078125q-1.3125 1.5625 -3.046875 2.203125q-1.71875 0.640625 -3.875 0.640625q-3.59375 0 -5.03125 -0.875q-1.4375 -0.875 -1.4375 -2.25q0 -0.875 0.234375 -1.953125q0.234375 -1.078125 0.71875 -1.71875q0.796875 0.5625 2.234375 0.921875q1.4375 0.359375 2.8125 0.359375q1.828125 0 3.390625 -1.84375q1.5625 -1.84375 2.4375 -6.796875l-9.59375 -39.515617z" fill-rule="nonzero"></path><path fill="#8b81d2" d="m769.2336 261.18634l148.53546 0l0 232.2515l-24.756409 24.756378l-123.77905 0z" fill-rule="nonzero"></path><path fill="#6f67a7" d="m893.01263 518.1942l4.951294 -19.805115l19.805115 -4.9512634z" fill-rule="nonzero"></path><path fill="#000000" fill-opacity="0.0" d="m893.01263 518.1942l4.951294 -19.805115l19.805115 -4.9512634l-24.756409 24.756378l-123.77905 0l0 -257.00787l148.53546 0l0 232.2515" fill-rule="nonzero"></path><path stroke="#666666" stroke-width="2.0" stroke-linejoin="round" stroke-linecap="butt" d="m893.01263 518.1942l4.951294 -19.805115l19.805115 -4.9512634l-24.756409 24.756378l-123.77905 0l0 -257.00787l148.53546 0l0 232.2515" fill-rule="nonzero"></path><path fill="#000000" d="m802.70013 379.23395l-12.71875 0l0 25.921875q0 0.484375 -0.078125 0.765625q-0.078125 0.28125 -0.6875 0.40625q-0.59375 0.109375 -1.921875 0.109375q-1.3125 0 -3.796875 0l0 -54.640625q0 -0.484375 0.078125 -0.765625q0.09375 -0.28125 0.6875 -0.390625q0.59375 -0.125 1.90625 -0.15625q1.328125 -0.046875 3.8125 -0.046875l0 22.796875l12.71875 0l0 -21.4375q0 -0.484375 0.078125 -0.765625q0.078125 -0.28125 0.671875 -0.390625q0.609375 -0.125 1.921875 -0.15625q1.328125 -0.046875 3.8125 -0.046875l0 54.71875q0 0.484375 -0.078125 0.765625q-0.078125 0.28125 -0.6875 0.40625q-0.59375 0.109375 -1.921875 0.109375q-1.3125 0 -3.796875 0l0 -27.203125zm28.00122 -22.71875l0 48.640625q0 0.484375 -0.125 0.765625q-0.109375 0.28125 -0.71875 0.40625q-0.59375 0.109375 -1.921875 0.109375q-1.3125 0 -3.71875 0l0 -49.921875l-10.875 0l0 -4.71875q0 -1.359375 1.359375 -1.359375l27.203125 0l0 4.796875q0 1.28125 -1.359375 1.28125l-9.84375 0zm15.277466 -4.71875q0 -0.953125 0.390625 -1.15625q0.40625 -0.203125 0.96875 -0.203125l4.71875 0l7.609375 24.15625q0.3125 1.203125 0.75 2.640625q0.4375 1.4375 0.796875 2.796875q0.375 1.359375 0.640625 2.328125q0.28125 0.953125 0.375 1.203125q0 -0.078125 0.234375 -1.078125q0.234375 -1.0 0.59375 -2.3125q0.359375 -1.328125 0.71875 -2.765625q0.359375 -1.453125 0.765625 -2.5625l7.046875 -23.046875q0.15625 -0.640625 0.390625 -1.0q0.25 -0.359375 0.875 -0.359375l5.28125 0l0 54.71875q0 0.484375 -0.125 0.765625q-0.109375 0.28125 -0.71875 0.40625q-0.59375 0.109375 -1.953125 0.109375q-1.359375 0 -3.84375 0l0.25 -19.4375q0.078125 -2.875 0.28125 -6.5625q0.203125 -3.6875 0.4375 -7.15625q0.234375 -3.484375 0.4375 -6.203125q0.203125 -2.71875 0.28125 -3.6875q-0.640625 2.25 -1.4375 5.09375q-0.796875 2.828125 -1.53125 5.4375q-0.71875 2.59375 -1.3125 4.640625q-0.59375 2.03125 -0.84375 2.75l-4.234375 12.171875q-0.15625 0.390625 -0.40625 0.515625q-0.234375 0.125 -0.46875 0.125l-2.8125 0l-4.15625 -12.8125q-0.234375 -0.640625 -0.84375 -2.671875q-0.59375 -2.046875 -1.359375 -4.6875q-0.75 -2.640625 -1.5625 -5.515625q-0.796875 -2.875 -1.4375 -5.203125l0 0.078125q0.40625 4.25 0.71875 8.484375q0.328125 3.59375 0.53125 7.640625q0.203125 4.046875 0.28125 7.234375l0.15625 18.484375q0 0.484375 -0.171875 0.765625q-0.15625 0.28125 -0.796875 0.40625q-0.640625 0.109375 -1.953125 0.109375q-1.3125 0 -3.5625 0l0 -54.640625zm45.682434 48.5625l13.765625 0l0 4.796875q0 0.796875 -0.359375 1.046875q-0.359375 0.234375 -1.0 0.234375l-18.96875 0l0 -54.15625q0 -0.71875 0.125 -1.078125q0.125 -0.359375 0.75 -0.515625q0.640625 -0.171875 1.953125 -0.203125q1.328125 -0.046875 3.734375 -0.046875l0 49.921875z" fill-rule="nonzero"></path><path fill="#000000" fill-opacity="0.0" d="m642.8712 206.73904l87.212585 65.03937" fill-rule="nonzero"></path><path stroke="#666666" stroke-width="2.0" stroke-linejoin="round" stroke-linecap="butt" d="m642.8712 206.73904l77.59302 57.86554" fill-rule="evenodd"></path><path fill="#666666" stroke="#666666" stroke-width="2.0" stroke-linecap="butt" d="m718.4894 267.25272l9.25061 2.7778015l-5.3008423 -8.074097z" fill-rule="evenodd"></path><path fill="#000000" fill-opacity="0.0" d="m650.8712 294.57632l80.97638 37.984253" fill-rule="nonzero"></path><path stroke="#666666" stroke-width="2.0" stroke-linejoin="round" stroke-linecap="butt" d="m650.8712 294.57632l70.11224 32.888123" fill-rule="evenodd"></path><path fill="#666666" stroke="#666666" stroke-width="2.0" stroke-linecap="butt" d="m719.58057 330.45523l9.619995 0.863678l-6.814209 -6.8452454z" fill-rule="evenodd"></path><path fill="#000000" fill-opacity="0.0" d="m653.18616 383.7784l76.3465 0" fill-rule="nonzero"></path><path stroke="#666666" stroke-width="2.0" stroke-linejoin="round" stroke-linecap="butt" d="m653.18616 383.7784l64.3465 0" fill-rule="evenodd"></path><path fill="#666666" stroke="#666666" stroke-width="2.0" stroke-linecap="butt" d="m717.53265 387.08188l9.076172 -3.3034668l-9.076172 -3.3034668z" fill-rule="evenodd"></path><path fill="#000000" fill-opacity="0.0" d="m653.18616 478.11438l83.33862 -58.26773" fill-rule="nonzero"></path><path stroke="#666666" stroke-width="2.0" stroke-linejoin="round" stroke-linecap="butt" d="m653.18616 478.11438l73.50397 -51.391663" fill-rule="evenodd"></path><path fill="#666666" stroke="#666666" stroke-width="2.0" stroke-linecap="butt" d="m728.58307 429.43008l5.545471 -7.908081l-9.331299 2.4933472z" fill-rule="evenodd"></path><path fill="#000000" fill-opacity="0.0" d="m653.18616 588.78107l78.64569 -103.49609" fill-rule="nonzero"></path><path stroke="#666666" stroke-width="2.0" stroke-linejoin="round" stroke-linecap="butt" d="m653.18616 588.78107l71.385376 -93.94162" fill-rule="evenodd"></path><path fill="#666666" stroke="#666666" stroke-width="2.0" stroke-linecap="butt" d="m727.2018 496.83813l2.861084 -9.22522l-8.121582 5.2278137z" fill-rule="evenodd"></path><path fill="#000000" fill-opacity="0.0" d="m618.9764 46.619423l229.63782 0l0 114.83465l-229.63782 0z" fill-rule="nonzero"></path><path fill="#666666" d="m651.492 94.9788q0 0.640625 -0.15625 1.609375q-0.15625 0.953125 -0.5625 2.0q-0.953125 -0.5625 -2.484375 -1.0q-1.515625 -0.453125 -3.109375 -0.453125q-1.4375 0 -2.84375 0.484375q-1.40625 0.484375 -2.53125 2.125q-1.109375 1.640625 -1.828125 4.796875q-0.71875 3.15625 -0.71875 8.515625q0 4.25 0.4375 6.96875q0.4375 2.71875 1.3125 4.328125q0.890625 1.59375 2.203125 2.234375q1.328125 0.640625 3.171875 0.640625q1.90625 0 3.59375 -0.59375q1.6875 -0.609375 2.71875 -1.25q0.328125 1.109375 0.484375 1.921875q0.15625 0.7968674 0.15625 1.5937424q0 1.59375 -2.484375 2.84375q-2.46875 1.234375 -6.46875 1.234375q-2.890625 0 -5.09375 -0.71875q-2.1875 -0.71875 -3.71875 -2.875q-1.515625 -2.1562424 -2.3125 -6.0781174q-0.796875 -3.921875 -0.796875 -10.25q0 -7.1875 1.3125 -11.46875q1.328125 -4.28125 3.40625 -6.5625q2.078125 -2.28125 4.640625 -2.953125q2.5625 -0.6875 5.03125 -0.6875q2.8125 0 4.71875 1.0q1.921875 1.0 1.921875 2.59375zm3.446228 17.203125q0 -10.953125 3.46875 -15.875q3.484375 -4.921875 9.8125 -4.921875q3.109375 0 5.46875 0.921875q2.375 0.921875 3.890625 3.28125q1.515625 2.359375 2.265625 6.328125q0.765625 3.953125 0.765625 10.03125q0 11.1875 -3.359375 16.109367q-3.359375 4.921875 -9.75 4.921875q-3.125 0 -5.453125 -0.71875q-2.3125 -0.71875 -3.921875 -2.921875q-1.59375 -2.2031174 -2.390625 -6.3124924q-0.796875 -4.125 -0.796875 -10.84375zm7.03125 0.15625q0 4.96875 0.359375 7.9375q0.375 2.953125 1.09375 4.546875q0.71875 1.59375 1.796875 2.125q1.078125 0.515625 2.4375 0.515625q1.28125 0 2.359375 -0.640625q1.078125 -0.640625 1.875 -2.390625q0.8125 -1.765625 1.25 -4.71875q0.4375 -2.96875 0.4375 -7.6875q0 -4.796875 -0.359375 -7.71875q-0.359375 -2.921875 -1.046875 -4.515625q-0.671875 -1.609375 -1.71875 -2.171875q-1.03125 -0.5625 -2.484375 -0.5625q-1.359375 0 -2.4375 0.640625q-1.078125 0.640625 -1.875 2.328125q-0.796875 1.671875 -1.25 4.671875q-0.4375 3.0 -0.4375 7.640625zm40.00244 -11.28125q-0.078125 -2.15625 -0.796875 -3.078125q-0.71875 -0.921875 -3.125 -0.921875q-2.796875 0 -5.4375 1.359375l0 32.484367q0 0.484375 -0.125 0.765625q-0.109375 0.28125 -0.75 0.40625q-0.640625 0.109375 -1.96875 0.109375q-1.3125 0 -3.625 0l0 -38.156242q2.625 -1.203125 5.671875 -1.921875q3.046875 -0.71875 6.40625 -0.71875q2.546875 0 4.3125 0.640625q1.765625 0.640625 2.875 1.84375q2.09375 -1.125 4.71875 -1.796875q2.640625 -0.6875 5.125 -0.6875q2.96875 0 4.765625 0.765625q1.796875 0.75 2.71875 2.1875q0.921875 1.4375 1.203125 3.53125q0.28125 2.078125 0.28125 4.796875l0 28.234367q0 0.484375 -0.125 0.765625q-0.125 0.28125 -0.765625 0.40625q-0.640625 0.109375 -1.96875 0.109375q-1.3125 0 -3.625 0l0 -29.593742q0 -2.890625 -0.765625 -4.171875q-0.75 -1.28125 -3.15625 -1.28125q-1.359375 0 -2.6875 0.328125q-1.3125 0.3125 -2.671875 1.203125l0 32.234367q0 0.484375 -0.078125 0.765625q-0.078125 0.28125 -0.6875 0.40625q-0.59375 0.109375 -1.921875 0.109375q-1.3125 0 -3.796875 0l0 -31.124992zm29.289978 -24.640625q0 -1.109375 0.234375 -1.75q0.234375 -0.640625 0.953125 -0.921875q0.734375 -0.28125 2.0 -0.3125q1.28125 -0.046875 3.28125 -0.046875l0 20.796875q1.609375 -1.359375 3.6875 -2.078125q2.078125 -0.71875 4.875 -0.71875q2.40625 0 4.234375 0.84375q1.84375 0.828125 3.046875 2.671875q1.203125 1.84375 1.84375 4.84375q0.640625 3.0 0.640625 7.390625q0 8.640625 -1.484375 13.765625q-1.484375 5.125 -3.765625 7.8124924q-2.265625 2.671875 -5.0 3.46875q-2.71875 0.796875 -5.1875 0.796875q-6.328125 0 -9.359375 -2.390625l0 -54.171867zm6.46875 49.765625q0.5625 0.40625 1.484375 0.734375q0.921875 0.3125 2.28125 0.3125q1.046875 0 2.3125 -0.640625q1.28125 -0.640625 2.359375 -2.59375q1.09375 -1.96875 1.84375 -5.640625q0.765625 -3.6875 0.765625 -9.765625q0 -6.40625 -1.359375 -8.875q-1.359375 -2.484375 -4.078125 -2.484375q-3.125 0 -5.609375 2.234375l0 26.71875zm30.718079 4.7187424q0 0.484375 -0.125 0.765625q-0.109375 0.28125 -0.75 0.40625q-0.640625 0.109375 -1.96875 0.109375q-1.3125 0 -3.78125 0l0 -37.046867q0 -1.109375 0.265625 -1.703125q0.28125 -0.609375 1.046875 -0.890625q0.765625 -0.28125 2.03125 -0.3125q1.28125 -0.046875 3.28125 -0.046875l0 38.718742zm-6.3125 -51.437492q0.078125 -2.15625 0.953125 -3.46875q0.890625 -1.328125 2.8125 -1.328125q1.828125 0 2.546875 1.046875q0.734375 1.03125 0.640625 3.59375q0 2.46875 -0.921875 3.828125q-0.90625 1.359375 -2.75 1.359375q-1.59375 0 -2.4375 -1.109375q-0.84375 -1.125 -0.84375 -3.921875zm13.59375 14.640625q1.203125 -0.484375 2.71875 -1.0q1.53125 -0.515625 3.203125 -0.875q1.6875 -0.359375 3.40625 -0.59375q1.71875 -0.25 3.3125 -0.25q6.328125 0 8.796875 2.4375q2.484375 2.4375 2.484375 8.28125l0 28.796867q0 0.484375 -0.125 0.765625q-0.109375 0.28125 -0.75 0.40625q-0.640625 0.109375 -2.0 0.109375q-1.359375 0 -3.84375 0l0 -28.156242q0 -3.84375 -0.875 -5.40625q-0.875 -1.5625 -3.921875 -1.5625q-1.28125 0 -2.921875 0.359375q-1.640625 0.359375 -3.0 1.078125l0 32.406242q0 0.484375 -0.125 0.765625q-0.109375 0.28125 -0.75 0.40625q-0.640625 0.109375 -1.921875 0.109375q-1.28125 0 -3.6875 0l0 -38.078117zm43.606873 -2.71875q10.15625 0 10.15625 12.875q0 2.640625 -0.203125 5.4375q-0.1875 2.796875 -0.671875 4.96875q-2.078125 0.390625 -4.40625 0.640625q-2.3125 0.234375 -4.59375 0.40625q-2.28125 0.15625 -4.28125 0.203125q-2.0 0.03125 -3.4375 0.03125q0.078125 3.1875 0.59375 5.28125q0.515625 2.078125 1.390625 3.28125q0.890625 1.1875 2.25 1.671875q1.359375 0.484375 3.203125 0.484375q2.40625 0 4.71875 -0.671875q2.328125 -0.6875 4.40625 -1.8125q0.3125 0.875 0.421875 2.15625q0.125 1.28125 0.125 2.2499924q0 0.953125 -0.875 1.75q-0.875 0.796875 -2.40625 1.40625q-1.515625 0.59375 -3.515625 0.90625q-2.0 0.328125 -4.234375 0.328125q-2.796875 0 -5.15625 -0.71875q-2.359375 -0.71875 -4.046875 -2.75q-1.671875 -2.0468674 -2.640625 -5.7187424q-0.953125 -3.6875 -0.953125 -9.53125q0 -7.515625 1.234375 -12.03125q1.234375 -4.53125 3.1875 -6.921875q1.96875 -2.40625 4.53125 -3.15625q2.5625 -0.765625 5.203125 -0.765625zm-0.71875 5.671875q-1.203125 0 -2.328125 0.609375q-1.109375 0.59375 -2.03125 2.15625q-0.921875 1.5625 -1.53125 4.171875q-0.59375 2.59375 -0.75 6.671875q1.125 0 2.5625 0q1.4375 0 2.90625 -0.125q1.484375 -0.125 2.890625 -0.28125q1.40625 -0.15625 2.4375 -0.484375q0.234375 -1.109375 0.3125 -2.390625q0.09375 -1.28125 0.09375 -2.40625q-0.078125 -4.3125 -1.046875 -6.109375q-0.953125 -1.8125 -3.515625 -1.8125z" fill-rule="nonzero"></path></g></svg>

